<svg width="504" height="567" viewBox="0 0 504 567" fill="none" xmlns="http://www.w3.org/2000/svg">
<path d="M471.31 22.27H49.57V62.48H471.31V22.27Z" fill="#2BB673"/>
<path d="M453.17 42.3701H31.4301V62.8001H453.17V42.3701Z" fill="#BD4F9D"/>
<path d="M473.48 62.8H30C13.4315 62.8 0 76.2315 0 92.8V536.28C0 552.849 13.4315 566.28 30 566.28H473.48C490.049 566.28 503.48 552.849 503.48 536.28V92.8C503.48 76.2315 490.049 62.8 473.48 62.8Z" fill="#00AEEF"/>
<path d="M251.74 125.6C291.576 125.6 323.87 97.4835 323.87 62.8C323.87 28.1165 291.576 0 251.74 0C211.904 0 179.61 28.1165 179.61 62.8C179.61 97.4835 211.904 125.6 251.74 125.6Z" fill="#00AEEF"/>
<path d="M251.74 92.7901C271.644 92.7901 287.78 79.3631 287.78 62.8001C287.78 46.237 271.644 32.8101 251.74 32.8101C231.836 32.8101 215.7 46.237 215.7 62.8001C215.7 79.3631 231.836 92.7901 251.74 92.7901Z" fill="white"/>
<path d="M256.44 402.5L109.96 266.74L82.65 300.52L229.13 436.28L256.44 402.5Z" fill="white"/>
<path d="M389.28 169.28L221.63 376.69L253.18 405.93L420.83 198.52L389.28 169.28Z" fill="white"/>
</svg>
